<svg width="1024" height="753" viewBox="0 0 1024 753" fill="none" xmlns="http://www.w3.org/2000/svg">
<g opacity="0.2" filter="url(#filter0_f_175_198)">
<ellipse cx="512.5" cy="25" rx="670.5" ry="350" fill="#338AF3"/>
</g>
<path d="M33.0349 261C34.5302 261 35.6622 261.63 36.4308 262.891C37.2134 264.138 37.6047 265.953 37.6047 268.336C37.6047 270.719 37.2134 272.541 36.4308 273.802C35.6622 275.063 34.5302 275.693 33.0349 275.693C31.5536 275.693 30.4216 275.063 29.639 273.802C28.8564 272.541 28.4651 270.719 28.4651 268.336C28.4651 265.967 28.8564 264.152 29.639 262.891C30.4216 261.63 31.5536 261 33.0349 261ZM29.9534 268.336C29.9534 270.026 30.1072 271.35 30.4146 272.306L35.0683 263.099C34.5791 262.448 33.9013 262.122 33.0349 262.122C32.0706 262.122 31.316 262.635 30.771 263.66C30.2259 264.672 29.9534 266.23 29.9534 268.336ZM33.0349 274.55C34.0131 274.55 34.7748 274.044 35.3198 273.033C35.8648 272.008 36.1373 270.442 36.1373 268.336C36.1373 266.549 35.9627 265.163 35.6133 264.18L30.9596 273.469C31.4627 274.19 32.1545 274.55 33.0349 274.55Z" fill="url(#paint0_linear_175_198)" fill-opacity="0.6"/>
<path d="M34.2926 298.135H37.3741V299.236H29.3874V298.135H32.9511V286.455L29.5551 288.471L28.9682 287.536L33.1607 284.959H34.2926V298.135Z" fill="url(#paint1_linear_175_198)" fill-opacity="0.6"/>
<path d="M33.0349 308.502C34.5302 308.502 35.6622 309.133 36.4308 310.393C37.2134 311.64 37.6047 313.455 37.6047 315.838C37.6047 318.221 37.2134 320.043 36.4308 321.304C35.6622 322.565 34.5302 323.195 33.0349 323.195C31.5536 323.195 30.4216 322.565 29.639 321.304C28.8564 320.043 28.4651 318.221 28.4651 315.838C28.4651 313.469 28.8564 311.654 29.639 310.393C30.4216 309.133 31.5536 308.502 33.0349 308.502ZM29.9534 315.838C29.9534 317.529 30.1072 318.852 30.4146 319.808L35.0683 310.601C34.5791 309.95 33.9013 309.624 33.0349 309.624C32.0706 309.624 31.316 310.137 30.771 311.162C30.2259 312.174 29.9534 313.732 29.9534 315.838ZM33.0349 322.052C34.0131 322.052 34.7748 321.546 35.3198 320.535C35.8648 319.51 36.1373 317.944 36.1373 315.838C36.1373 314.051 35.9627 312.665 35.6133 311.682L30.9596 320.971C31.4627 321.692 32.1545 322.052 33.0349 322.052Z" fill="url(#paint2_linear_175_198)" fill-opacity="0.6"/>
<path d="M34.2926 345.637H37.3741V346.738H29.3874V345.637H32.9511V333.957L29.5551 335.973L28.9682 335.038L33.1607 332.461H34.2926V345.637Z" fill="url(#paint3_linear_175_198)" fill-opacity="0.6"/>
<path d="M34.2926 369.388H37.3741V370.489H29.3874V369.388H32.9511V357.708L29.5551 359.724L28.9682 358.789L33.1607 356.212H34.2926V369.388Z" fill="url(#paint4_linear_175_198)" fill-opacity="0.6"/>
<path d="M33.0349 379.755C34.5302 379.755 35.6622 380.386 36.4308 381.646C37.2134 382.893 37.6047 384.708 37.6047 387.091C37.6047 389.474 37.2134 391.296 36.4308 392.557C35.6622 393.818 34.5302 394.448 33.0349 394.448C31.5536 394.448 30.4216 393.818 29.639 392.557C28.8564 391.296 28.4651 389.474 28.4651 387.091C28.4651 384.722 28.8564 382.907 29.639 381.646C30.4216 380.386 31.5536 379.755 33.0349 379.755ZM29.9534 387.091C29.9534 388.782 30.1072 390.105 30.4146 391.061L35.0683 381.854C34.5791 381.203 33.9013 380.878 33.0349 380.878C32.0706 380.878 31.316 381.39 30.771 382.415C30.2259 383.427 29.9534 384.985 29.9534 387.091ZM33.0349 393.305C34.0131 393.305 34.7748 392.8 35.3198 391.788C35.8648 390.763 36.1373 389.197 36.1373 387.091C36.1373 385.304 35.9627 383.919 35.6133 382.935L30.9596 392.225C31.4627 392.945 32.1545 393.305 33.0349 393.305Z" fill="url(#paint5_linear_175_198)" fill-opacity="0.6"/>
<path d="M34.2926 416.89H37.3741V417.992H29.3874V416.89H32.9511V405.21L29.5551 407.226L28.9682 406.291L33.1607 403.714H34.2926V416.89Z" fill="url(#paint6_linear_175_198)" fill-opacity="0.6"/>
<path d="M33.0349 427.257C34.5302 427.257 35.6622 427.888 36.4308 429.149C37.2134 430.396 37.6047 432.211 37.6047 434.594C37.6047 436.977 37.2134 438.798 36.4308 440.059C35.6622 441.32 34.5302 441.95 33.0349 441.95C31.5536 441.95 30.4216 441.32 29.639 440.059C28.8564 438.798 28.4651 436.977 28.4651 434.594C28.4651 432.224 28.8564 430.409 29.639 429.149C30.4216 427.888 31.5536 427.257 33.0349 427.257ZM29.9534 434.594C29.9534 436.284 30.1072 437.607 30.4146 438.563L35.0683 429.356C34.5791 428.705 33.9013 428.38 33.0349 428.38C32.0706 428.38 31.316 428.892 30.771 429.918C30.2259 430.929 29.9534 432.488 29.9534 434.594ZM33.0349 440.807C34.0131 440.807 34.7748 440.302 35.3198 439.29C35.8648 438.265 36.1373 436.699 36.1373 434.594C36.1373 432.806 35.9627 431.421 35.6133 430.437L30.9596 439.727C31.4627 440.447 32.1545 440.807 33.0349 440.807Z" fill="url(#paint7_linear_175_198)" fill-opacity="0.6"/>
<path d="M33.0349 451.008C34.5302 451.008 35.6622 451.639 36.4308 452.9C37.2134 454.147 37.6047 455.962 37.6047 458.345C37.6047 460.728 37.2134 462.549 36.4308 463.81C35.6622 465.071 34.5302 465.701 33.0349 465.701C31.5536 465.701 30.4216 465.071 29.639 463.81C28.8564 462.549 28.4651 460.728 28.4651 458.345C28.4651 455.975 28.8564 454.16 29.639 452.9C30.4216 451.639 31.5536 451.008 33.0349 451.008ZM29.9534 458.345C29.9534 460.035 30.1072 461.358 30.4146 462.314L35.0683 453.107C34.5791 452.456 33.9013 452.131 33.0349 452.131C32.0706 452.131 31.316 452.643 30.771 453.669C30.2259 454.68 29.9534 456.239 29.9534 458.345ZM33.0349 464.558C34.0131 464.558 34.7748 464.053 35.3198 463.041C35.8648 462.016 36.1373 460.451 36.1373 458.345C36.1373 456.557 35.9627 455.172 35.6133 454.188L30.9596 463.478C31.4627 464.198 32.1545 464.558 33.0349 464.558Z" fill="url(#paint8_linear_175_198)" fill-opacity="0.6"/>
<path d="M34.2926 488.143H37.3741V489.245H29.3874V488.143H32.9511V476.464L29.5551 478.48L28.9682 477.544L33.1607 474.967H34.2926V488.143Z" fill="url(#paint9_linear_175_198)" fill-opacity="0.6"/>
<path d="M33.0349 498.511C34.5302 498.511 35.6622 499.141 36.4308 500.402C37.2134 501.649 37.6047 503.464 37.6047 505.847C37.6047 508.23 37.2134 510.052 36.4308 511.312C35.6622 512.573 34.5302 513.204 33.0349 513.204C31.5536 513.204 30.4216 512.573 29.639 511.312C28.8564 510.052 28.4651 508.23 28.4651 505.847C28.4651 503.478 28.8564 501.663 29.639 500.402C30.4216 499.141 31.5536 498.511 33.0349 498.511ZM29.9534 505.847C29.9534 507.537 30.1072 508.86 30.4146 509.816L35.0683 500.61C34.5791 499.958 33.9013 499.633 33.0349 499.633C32.0706 499.633 31.316 500.145 30.771 501.171C30.2259 502.182 29.9534 503.741 29.9534 505.847ZM33.0349 512.061C34.0131 512.061 34.7748 511.555 35.3198 510.543C35.8648 509.518 36.1373 507.953 36.1373 505.847C36.1373 504.059 35.9627 502.674 35.6133 501.69L30.9596 510.98C31.4627 511.7 32.1545 512.061 33.0349 512.061Z" fill="url(#paint10_linear_175_198)" fill-opacity="0.6"/>
<path d="M34.2926 535.645H37.3741V536.747H29.3874V535.645H32.9511V523.966L29.5551 525.982L28.9682 525.046L33.1607 522.469H34.2926V535.645Z" fill="url(#paint11_linear_175_198)" fill-opacity="0.6"/>
<path d="M34.2926 559.396H37.3741V560.498H29.3874V559.396H32.9511V547.717L29.5551 549.733L28.9682 548.798L33.1607 546.221H34.2926V559.396Z" fill="url(#paint12_linear_175_198)" fill-opacity="0.6"/>
<path d="M71.9651 308.502C73.4604 308.502 74.5924 309.133 75.361 310.393C76.1436 311.64 76.5349 313.455 76.5349 315.838C76.5349 318.221 76.1436 320.043 75.361 321.304C74.5924 322.565 73.4604 323.195 71.9651 323.195C70.4838 323.195 69.3518 322.565 68.5692 321.304C67.7866 320.043 67.3953 318.221 67.3953 315.838C67.3953 313.469 67.7866 311.654 68.5692 310.393C69.3518 309.133 70.4838 308.502 71.9651 308.502ZM68.8836 315.838C68.8836 317.529 69.0374 318.852 69.3448 319.808L73.9985 310.601C73.5093 309.95 72.8315 309.624 71.9651 309.624C71.0008 309.624 70.2462 310.137 69.7012 311.162C69.1561 312.174 68.8836 313.732 68.8836 315.838ZM71.9651 322.052C72.9433 322.052 73.705 321.546 74.25 320.535C74.795 319.51 75.0675 317.944 75.0675 315.838C75.0675 314.051 74.8928 312.665 74.5435 311.682L69.8898 320.971C70.3929 321.692 71.0847 322.052 71.9651 322.052Z" fill="url(#paint13_linear_175_198)" fill-opacity="0.6"/>
<path d="M73.2228 345.637H76.3043V346.738H68.3176V345.637H71.8812V333.957L68.4853 335.973L67.8984 335.038L72.0909 332.461H73.2228V345.637Z" fill="url(#paint14_linear_175_198)" fill-opacity="0.6"/>
<path d="M71.9651 356.004C73.4604 356.004 74.5924 356.635 75.361 357.895C76.1436 359.142 76.5349 360.957 76.5349 363.34C76.5349 365.723 76.1436 367.545 75.361 368.806C74.5924 370.067 73.4604 370.697 71.9651 370.697C70.4838 370.697 69.3518 370.067 68.5692 368.806C67.7866 367.545 67.3953 365.723 67.3953 363.34C67.3953 360.971 67.7866 359.156 68.5692 357.895C69.3518 356.635 70.4838 356.004 71.9651 356.004ZM68.8836 363.34C68.8836 365.031 69.0374 366.354 69.3448 367.31L73.9985 358.103C73.5093 357.452 72.8315 357.126 71.9651 357.126C71.0008 357.126 70.2462 357.639 69.7012 358.664C69.1561 359.676 68.8836 361.234 68.8836 363.34ZM71.9651 369.554C72.9433 369.554 73.705 369.049 74.25 368.037C74.795 367.012 75.0675 365.446 75.0675 363.34C75.0675 361.553 74.8928 360.168 74.5435 359.184L69.8898 368.474C70.3929 369.194 71.0847 369.554 71.9651 369.554Z" fill="url(#paint15_linear_175_198)" fill-opacity="0.6"/>
<path d="M71.9651 379.755C73.4604 379.755 74.5924 380.386 75.361 381.646C76.1436 382.893 76.5349 384.708 76.5349 387.091C76.5349 389.474 76.1436 391.296 75.361 392.557C74.5924 393.818 73.4604 394.448 71.9651 394.448C70.4838 394.448 69.3518 393.818 68.5692 392.557C67.7866 391.296 67.3953 389.474 67.3953 387.091C67.3953 384.722 67.7866 382.907 68.5692 381.646C69.3518 380.386 70.4838 379.755 71.9651 379.755ZM68.8836 387.091C68.8836 388.782 69.0374 390.105 69.3448 391.061L73.9985 381.854C73.5093 381.203 72.8315 380.878 71.9651 380.878C71.0008 380.878 70.2462 381.39 69.7012 382.415C69.1561 383.427 68.8836 384.985 68.8836 387.091ZM71.9651 393.305C72.9433 393.305 73.705 392.8 74.25 391.788C74.795 390.763 75.0675 389.197 75.0675 387.091C75.0675 385.304 74.8928 383.919 74.5435 382.935L69.8898 392.225C70.3929 392.945 71.0847 393.305 71.9651 393.305Z" fill="url(#paint16_linear_175_198)" fill-opacity="0.6"/>
<path d="M73.2228 416.89H76.3043V417.992H68.3176V416.89H71.8812V405.21L68.4853 407.226L67.8984 406.291L72.0909 403.714H73.2228V416.89Z" fill="url(#paint17_linear_175_198)" fill-opacity="0.6"/>
<path d="M71.9651 427.257C73.4604 427.257 74.5924 427.888 75.361 429.149C76.1436 430.396 76.5349 432.211 76.5349 434.594C76.5349 436.977 76.1436 438.798 75.361 440.059C74.5924 441.32 73.4604 441.95 71.9651 441.95C70.4838 441.95 69.3518 441.32 68.5692 440.059C67.7866 438.798 67.3953 436.977 67.3953 434.594C67.3953 432.224 67.7866 430.409 68.5692 429.149C69.3518 427.888 70.4838 427.257 71.9651 427.257ZM68.8836 434.594C68.8836 436.284 69.0374 437.607 69.3448 438.563L73.9985 429.356C73.5093 428.705 72.8315 428.38 71.9651 428.38C71.0008 428.38 70.2462 428.892 69.7012 429.918C69.1561 430.929 68.8836 432.488 68.8836 434.594ZM71.9651 440.807C72.9433 440.807 73.705 440.302 74.25 439.29C74.795 438.265 75.0675 436.699 75.0675 434.594C75.0675 432.806 74.8928 431.421 74.5435 430.437L69.8898 439.727C70.3929 440.447 71.0847 440.807 71.9651 440.807Z" fill="url(#paint18_linear_175_198)" fill-opacity="0.6"/>
<path d="M73.2228 464.392H76.3043V465.494H68.3176V464.392H71.8812V452.713L68.4853 454.728L67.8984 453.793L72.0909 451.216H73.2228V464.392Z" fill="url(#paint19_linear_175_198)" fill-opacity="0.6"/>
<path d="M71.9651 474.76C73.4604 474.76 74.5924 475.39 75.361 476.651C76.1436 477.898 76.5349 479.713 76.5349 482.096C76.5349 484.479 76.1436 486.301 75.361 487.561C74.5924 488.822 73.4604 489.453 71.9651 489.453C70.4838 489.453 69.3518 488.822 68.5692 487.561C67.7866 486.301 67.3953 484.479 67.3953 482.096C67.3953 479.726 67.7866 477.911 68.5692 476.651C69.3518 475.39 70.4838 474.76 71.9651 474.76ZM68.8836 482.096C68.8836 483.786 69.0374 485.109 69.3448 486.065L73.9985 476.859C73.5093 476.207 72.8315 475.882 71.9651 475.882C71.0008 475.882 70.2462 476.394 69.7012 477.42C69.1561 478.431 68.8836 479.99 68.8836 482.096ZM71.9651 488.31C72.9433 488.31 73.705 487.804 74.25 486.792C74.795 485.767 75.0675 484.202 75.0675 482.096C75.0675 480.308 74.8928 478.923 74.5435 477.939L69.8898 487.229C70.3929 487.949 71.0847 488.31 71.9651 488.31Z" fill="url(#paint20_linear_175_198)" fill-opacity="0.6"/>
<path d="M71.9651 498.511C73.4604 498.511 74.5924 499.141 75.361 500.402C76.1436 501.649 76.5349 503.464 76.5349 505.847C76.5349 508.23 76.1436 510.052 75.361 511.312C74.5924 512.573 73.4604 513.204 71.9651 513.204C70.4838 513.204 69.3518 512.573 68.5692 511.312C67.7866 510.052 67.3953 508.23 67.3953 505.847C67.3953 503.478 67.7866 501.663 68.5692 500.402C69.3518 499.141 70.4838 498.511 71.9651 498.511ZM68.8836 505.847C68.8836 507.537 69.0374 508.86 69.3448 509.816L73.9985 500.61C73.5093 499.958 72.8315 499.633 71.9651 499.633C71.0008 499.633 70.2462 500.145 69.7012 501.171C69.1561 502.182 68.8836 503.741 68.8836 505.847ZM71.9651 512.061C72.9433 512.061 73.705 511.555 74.25 510.543C74.795 509.518 75.0675 507.953 75.0675 505.847C75.0675 504.059 74.8928 502.674 74.5435 501.69L69.8898 510.98C70.3929 511.7 71.0847 512.061 71.9651 512.061Z" fill="url(#paint21_linear_175_198)" fill-opacity="0.6"/>
<path d="M73.2228 535.645H76.3043V536.747H68.3176V535.645H71.8812V523.966L68.4853 525.982L67.8984 525.046L72.0909 522.469H73.2228V535.645Z" fill="url(#paint22_linear_175_198)" fill-opacity="0.6"/>
<path d="M71.9651 546.013C73.4604 546.013 74.5924 546.643 75.361 547.904C76.1436 549.151 76.5349 550.966 76.5349 553.349C76.5349 555.732 76.1436 557.554 75.361 558.815C74.5924 560.075 73.4604 560.706 71.9651 560.706C70.4838 560.706 69.3518 560.075 68.5692 558.815C67.7866 557.554 67.3953 555.732 67.3953 553.349C67.3953 550.98 67.7866 549.165 68.5692 547.904C69.3518 546.643 70.4838 546.013 71.9651 546.013ZM68.8836 553.349C68.8836 555.039 69.0374 556.362 69.3448 557.318L73.9985 548.112C73.5093 547.461 72.8315 547.135 71.9651 547.135C71.0008 547.135 70.2462 547.648 69.7012 548.673C69.1561 549.684 68.8836 551.243 68.8836 553.349ZM71.9651 559.563C72.9433 559.563 73.705 559.057 74.25 558.046C74.795 557.02 75.0675 555.455 75.0675 553.349C75.0675 551.562 74.8928 550.176 74.5435 549.192L69.8898 558.482C70.3929 559.202 71.0847 559.563 71.9651 559.563Z" fill="url(#paint23_linear_175_198)" fill-opacity="0.6"/>
<path d="M73.2228 583.147H76.3043V584.249H68.3176V583.147H71.8812V571.468L68.4853 573.484L67.8984 572.549L72.0909 569.972H73.2228V583.147Z" fill="url(#paint24_linear_175_198)" fill-opacity="0.6"/>
<path d="M73.2228 606.899H76.3043V608H68.3176V606.899H71.8812V595.219L68.4853 597.235L67.8984 596.3L72.0909 593.723H73.2228V606.899Z" fill="url(#paint25_linear_175_198)" fill-opacity="0.6"/>
<path d="M13.5698 332.253C15.0651 332.253 16.1971 332.884 16.9657 334.144C17.7483 335.391 18.1396 337.206 18.1396 339.589C18.1396 341.972 17.7483 343.794 16.9657 345.055C16.1971 346.316 15.0651 346.946 13.5698 346.946C12.0885 346.946 10.9565 346.316 10.1739 345.055C9.3913 343.794 9 341.972 9 339.589C9 337.22 9.3913 335.405 10.1739 334.144C10.9565 332.884 12.0885 332.253 13.5698 332.253ZM10.4883 339.589C10.4883 341.28 10.6421 342.603 10.9495 343.559L15.6032 334.352C15.114 333.701 14.4363 333.375 13.5698 333.375C12.6055 333.375 11.8509 333.888 11.3059 334.913C10.7608 335.925 10.4883 337.483 10.4883 339.589ZM13.5698 345.803C14.5481 345.803 15.3097 345.297 15.8547 344.286C16.3997 343.261 16.6722 341.695 16.6722 339.589C16.6722 337.802 16.4976 336.417 16.1482 335.433L11.4945 344.722C11.9976 345.443 12.6894 345.803 13.5698 345.803Z" fill="url(#paint26_linear_175_198)" fill-opacity="0.6"/>
<path d="M13.5698 356.004C15.0651 356.004 16.1971 356.635 16.9657 357.895C17.7483 359.142 18.1396 360.957 18.1396 363.34C18.1396 365.723 17.7483 367.545 16.9657 368.806C16.1971 370.067 15.0651 370.697 13.5698 370.697C12.0885 370.697 10.9565 370.067 10.1739 368.806C9.3913 367.545 9 365.723 9 363.34C9 360.971 9.3913 359.156 10.1739 357.895C10.9565 356.635 12.0885 356.004 13.5698 356.004ZM10.4883 363.34C10.4883 365.031 10.6421 366.354 10.9495 367.31L15.6032 358.103C15.114 357.452 14.4363 357.126 13.5698 357.126C12.6055 357.126 11.8509 357.639 11.3059 358.664C10.7608 359.676 10.4883 361.234 10.4883 363.34ZM13.5698 369.554C14.5481 369.554 15.3097 369.049 15.8547 368.037C16.3997 367.012 16.6722 365.446 16.6722 363.34C16.6722 361.553 16.4976 360.168 16.1482 359.184L11.4945 368.474C11.9976 369.194 12.6894 369.554 13.5698 369.554Z" fill="url(#paint27_linear_175_198)" fill-opacity="0.6"/>
<path d="M14.8276 393.139H17.909V394.24H9.92235V393.139H13.486V381.459L10.09 383.475L9.5031 382.54L13.6956 379.963H14.8276V393.139Z" fill="url(#paint28_linear_175_198)" fill-opacity="0.6"/>
<path d="M13.5698 403.506C15.0651 403.506 16.1971 404.137 16.9657 405.398C17.7483 406.644 18.1396 408.459 18.1396 410.842C18.1396 413.225 17.7483 415.047 16.9657 416.308C16.1971 417.569 15.0651 418.199 13.5698 418.199C12.0885 418.199 10.9565 417.569 10.1739 416.308C9.3913 415.047 9 413.225 9 410.842C9 408.473 9.3913 406.658 10.1739 405.398C10.9565 404.137 12.0885 403.506 13.5698 403.506ZM10.4883 410.842C10.4883 412.533 10.6421 413.856 10.9495 414.812L15.6032 405.605C15.114 404.954 14.4363 404.629 13.5698 404.629C12.6055 404.629 11.8509 405.141 11.3059 406.166C10.7608 407.178 10.4883 408.737 10.4883 410.842ZM13.5698 417.056C14.5481 417.056 15.3097 416.551 15.8547 415.539C16.3997 414.514 16.6722 412.948 16.6722 410.842C16.6722 409.055 16.4976 407.67 16.1482 406.686L11.4945 415.976C11.9976 416.696 12.6894 417.056 13.5698 417.056Z" fill="url(#paint29_linear_175_198)" fill-opacity="0.6"/>
<path d="M14.8276 440.641H17.909V441.743H9.92235V440.641H13.486V428.962L10.09 430.977L9.5031 430.042L13.6956 427.465H14.8276V440.641Z" fill="url(#paint30_linear_175_198)" fill-opacity="0.6"/>
<path d="M14.8276 464.392H17.909V465.494H9.92235V464.392H13.486V452.713L10.09 454.728L9.5031 453.793L13.6956 451.216H14.8276V464.392Z" fill="url(#paint31_linear_175_198)" fill-opacity="0.6"/>
<path d="M53.7577 298.135H56.8392V299.236H48.8525V298.135H52.4162V286.455L49.0202 288.471L48.4333 287.536L52.6258 284.959H53.7577V298.135Z" fill="url(#paint32_linear_175_198)" fill-opacity="0.6"/>
<path d="M52.5 308.502C53.9953 308.502 55.1273 309.133 55.8959 310.393C56.6785 311.64 57.0698 313.455 57.0698 315.838C57.0698 318.221 56.6785 320.043 55.8959 321.304C55.1273 322.565 53.9953 323.195 52.5 323.195C51.0187 323.195 49.8867 322.565 49.1041 321.304C48.3215 320.043 47.9302 318.221 47.9302 315.838C47.9302 313.469 48.3215 311.654 49.1041 310.393C49.8867 309.133 51.0187 308.502 52.5 308.502ZM49.4185 315.838C49.4185 317.529 49.5723 318.852 49.8797 319.808L54.5334 310.601C54.0442 309.95 53.3664 309.624 52.5 309.624C51.5357 309.624 50.7811 310.137 50.2361 311.162C49.691 312.174 49.4185 313.732 49.4185 315.838ZM52.5 322.052C53.4782 322.052 54.2399 321.546 54.7849 320.535C55.3299 319.51 55.6024 317.944 55.6024 315.838C55.6024 314.051 55.4277 312.665 55.0784 311.682L50.4247 320.971C50.9278 321.692 51.6196 322.052 52.5 322.052Z" fill="url(#paint33_linear_175_198)" fill-opacity="0.6"/>
<path d="M53.7577 345.637H56.8392V346.738H48.8525V345.637H52.4162V333.957L49.0202 335.973L48.4333 335.038L52.6258 332.461H53.7577V345.637Z" fill="url(#paint34_linear_175_198)" fill-opacity="0.6"/>
<path d="M53.7577 369.388H56.8392V370.489H48.8525V369.388H52.4162V357.708L49.0202 359.724L48.4333 358.789L52.6258 356.212H53.7577V369.388Z" fill="url(#paint35_linear_175_198)" fill-opacity="0.6"/>
<path d="M52.5 379.755C53.9953 379.755 55.1273 380.386 55.8959 381.646C56.6785 382.893 57.0698 384.708 57.0698 387.091C57.0698 389.474 56.6785 391.296 55.8959 392.557C55.1273 393.818 53.9953 394.448 52.5 394.448C51.0187 394.448 49.8867 393.818 49.1041 392.557C48.3215 391.296 47.9302 389.474 47.9302 387.091C47.9302 384.722 48.3215 382.907 49.1041 381.646C49.8867 380.386 51.0187 379.755 52.5 379.755ZM49.4185 387.091C49.4185 388.782 49.5723 390.105 49.8797 391.061L54.5334 381.854C54.0442 381.203 53.3664 380.878 52.5 380.878C51.5357 380.878 50.7811 381.39 50.2361 382.415C49.691 383.427 49.4185 384.985 49.4185 387.091ZM52.5 393.305C53.4782 393.305 54.2399 392.8 54.7849 391.788C55.3299 390.763 55.6024 389.197 55.6024 387.091C55.6024 385.304 55.4277 383.919 55.0784 382.935L50.4247 392.225C50.9278 392.945 51.6196 393.305 52.5 393.305Z" fill="url(#paint36_linear_175_198)" fill-opacity="0.6"/>
<path d="M53.7577 416.89H56.8392V417.992H48.8525V416.89H52.4162V405.21L49.0202 407.226L48.4333 406.291L52.6258 403.714H53.7577V416.89Z" fill="url(#paint37_linear_175_198)" fill-opacity="0.6"/>
<path d="M53.7577 440.641H56.8392V441.743H48.8525V440.641H52.4162V428.962L49.0202 430.977L48.4333 430.042L52.6258 427.465H53.7577V440.641Z" fill="url(#paint38_linear_175_198)" fill-opacity="0.6"/>
<path d="M52.5 451.008C53.9953 451.008 55.1273 451.639 55.8959 452.9C56.6785 454.147 57.0698 455.962 57.0698 458.345C57.0698 460.728 56.6785 462.549 55.8959 463.81C55.1273 465.071 53.9953 465.701 52.5 465.701C51.0187 465.701 49.8867 465.071 49.1041 463.81C48.3215 462.549 47.9302 460.728 47.9302 458.345C47.9302 455.975 48.3215 454.16 49.1041 452.9C49.8867 451.639 51.0187 451.008 52.5 451.008ZM49.4185 458.345C49.4185 460.035 49.5723 461.358 49.8797 462.314L54.5334 453.107C54.0442 452.456 53.3664 452.131 52.5 452.131C51.5357 452.131 50.7811 452.643 50.2361 453.669C49.691 454.68 49.4185 456.239 49.4185 458.345ZM52.5 464.558C53.4782 464.558 54.2399 464.053 54.7849 463.041C55.3299 462.016 55.6024 460.451 55.6024 458.345C55.6024 456.557 55.4277 455.172 55.0784 454.188L50.4247 463.478C50.9278 464.198 51.6196 464.558 52.5 464.558Z" fill="url(#paint39_linear_175_198)" fill-opacity="0.6"/>
<path d="M53.7577 488.143H56.8392V489.245H48.8525V488.143H52.4162V476.464L49.0202 478.48L48.4333 477.544L52.6258 474.967H53.7577V488.143Z" fill="url(#paint40_linear_175_198)" fill-opacity="0.6"/>
<path d="M52.5 498.511C53.9953 498.511 55.1273 499.141 55.8959 500.402C56.6785 501.649 57.0698 503.464 57.0698 505.847C57.0698 508.23 56.6785 510.052 55.8959 511.312C55.1273 512.573 53.9953 513.204 52.5 513.204C51.0187 513.204 49.8867 512.573 49.1041 511.312C48.3215 510.052 47.9302 508.23 47.9302 505.847C47.9302 503.478 48.3215 501.663 49.1041 500.402C49.8867 499.141 51.0187 498.511 52.5 498.511ZM49.4185 505.847C49.4185 507.537 49.5723 508.86 49.8797 509.816L54.5334 500.61C54.0442 499.958 53.3664 499.633 52.5 499.633C51.5357 499.633 50.7811 500.145 50.2361 501.171C49.691 502.182 49.4185 503.741 49.4185 505.847ZM52.5 512.061C53.4782 512.061 54.2399 511.555 54.7849 510.543C55.3299 509.518 55.6024 507.953 55.6024 505.847C55.6024 504.059 55.4277 502.674 55.0784 501.69L50.4247 510.98C50.9278 511.7 51.6196 512.061 52.5 512.061Z" fill="url(#paint41_linear_175_198)" fill-opacity="0.6"/>
<path d="M91.4302 284.751C92.9255 284.751 94.0575 285.381 94.8261 286.642C95.6087 287.889 96 289.704 96 292.087C96 294.47 95.6087 296.292 94.8261 297.553C94.0575 298.814 92.9255 299.444 91.4302 299.444C89.9489 299.444 88.8169 298.814 88.0343 297.553C87.2517 296.292 86.8604 294.47 86.8604 292.087C86.8604 289.718 87.2517 287.903 88.0343 286.642C88.8169 285.381 89.9489 284.751 91.4302 284.751ZM88.3487 292.087C88.3487 293.777 88.5024 295.101 88.8099 296.057L93.4636 286.85C92.9744 286.199 92.2966 285.873 91.4302 285.873C90.4659 285.873 89.7113 286.386 89.1663 287.411C88.6212 288.423 88.3487 289.981 88.3487 292.087ZM91.4302 298.301C92.4084 298.301 93.1701 297.795 93.7151 296.784C94.2601 295.759 94.5326 294.193 94.5326 292.087C94.5326 290.3 94.3579 288.914 94.0086 287.931L89.3549 297.22C89.858 297.941 90.5498 298.301 91.4302 298.301Z" fill="url(#paint42_linear_175_198)" fill-opacity="0.6"/>
<path d="M92.6879 321.886H95.7694V322.987H87.7827V321.886H91.3463V310.206L87.9504 312.222L87.3635 311.287L91.556 308.71H92.6879V321.886Z" fill="url(#paint43_linear_175_198)" fill-opacity="0.6"/>
<path d="M92.6879 345.637H95.7694V346.738H87.7827V345.637H91.3463V333.957L87.9504 335.973L87.3635 335.038L91.556 332.461H92.6879V345.637Z" fill="url(#paint44_linear_175_198)" fill-opacity="0.6"/>
<path d="M91.4302 356.004C92.9255 356.004 94.0575 356.635 94.8261 357.895C95.6087 359.142 96 360.957 96 363.34C96 365.723 95.6087 367.545 94.8261 368.806C94.0575 370.067 92.9255 370.697 91.4302 370.697C89.9489 370.697 88.8169 370.067 88.0343 368.806C87.2517 367.545 86.8604 365.723 86.8604 363.34C86.8604 360.971 87.2517 359.156 88.0343 357.895C88.8169 356.635 89.9489 356.004 91.4302 356.004ZM88.3487 363.34C88.3487 365.031 88.5024 366.354 88.8099 367.31L93.4636 358.103C92.9744 357.452 92.2966 357.126 91.4302 357.126C90.4659 357.126 89.7113 357.639 89.1663 358.664C88.6212 359.676 88.3487 361.234 88.3487 363.34ZM91.4302 369.554C92.4084 369.554 93.1701 369.049 93.7151 368.037C94.2601 367.012 94.5326 365.446 94.5326 363.34C94.5326 361.553 94.3579 360.168 94.0086 359.184L89.3549 368.474C89.858 369.194 90.5498 369.554 91.4302 369.554Z" fill="url(#paint45_linear_175_198)" fill-opacity="0.6"/>
<path d="M91.4302 379.755C92.9255 379.755 94.0575 380.386 94.8261 381.646C95.6087 382.893 96 384.708 96 387.091C96 389.474 95.6087 391.296 94.8261 392.557C94.0575 393.818 92.9255 394.448 91.4302 394.448C89.9489 394.448 88.8169 393.818 88.0343 392.557C87.2517 391.296 86.8604 389.474 86.8604 387.091C86.8604 384.722 87.2517 382.907 88.0343 381.646C88.8169 380.386 89.9489 379.755 91.4302 379.755ZM88.3487 387.091C88.3487 388.782 88.5024 390.105 88.8099 391.061L93.4636 381.854C92.9744 381.203 92.2966 380.878 91.4302 380.878C90.4659 380.878 89.7113 381.39 89.1663 382.415C88.6212 383.427 88.3487 384.985 88.3487 387.091ZM91.4302 393.305C92.4084 393.305 93.1701 392.8 93.7151 391.788C94.2601 390.763 94.5326 389.197 94.5326 387.091C94.5326 385.304 94.3579 383.919 94.0086 382.935L89.3549 392.225C89.858 392.945 90.5498 393.305 91.4302 393.305Z" fill="url(#paint46_linear_175_198)" fill-opacity="0.6"/>
<g opacity="0.6">
<path d="M919.93 -39C921.356 -39 922.436 -38.395 923.17 -37.1851C923.916 -35.9885 924.29 -34.2468 924.29 -31.9599C924.29 -29.673 923.916 -27.9246 923.17 -26.7147C922.436 -25.5048 921.356 -24.8998 919.93 -24.8998C918.517 -24.8998 917.437 -25.5048 916.69 -26.7147C915.943 -27.9246 915.57 -29.673 915.57 -31.9599C915.57 -34.2335 915.943 -35.9752 916.69 -37.1851C917.437 -38.395 918.517 -39 919.93 -39ZM916.99 -31.9599C916.99 -30.3378 917.137 -29.068 917.43 -28.1506L921.87 -36.9857C921.403 -37.6106 920.756 -37.923 919.93 -37.923C919.01 -37.923 918.29 -37.4311 917.77 -36.4472C917.25 -35.4766 916.99 -33.9808 916.99 -31.9599ZM919.93 -25.9967C920.863 -25.9967 921.59 -26.482 922.11 -27.4526C922.63 -28.4365 922.89 -29.9389 922.89 -31.9599C922.89 -33.675 922.723 -35.0046 922.39 -35.9486L917.95 -27.0338C918.43 -26.3424 919.09 -25.9967 919.93 -25.9967Z" fill="url(#paint47_linear_175_198)"/>
<path d="M921.13 -3.36345H924.07V-2.30644H916.45V-3.36345H919.85V-14.5718L916.61 -12.6373L916.05 -13.5347L920.05 -16.0078H921.13V-3.36345Z" fill="url(#paint48_linear_175_198)"/>
<path d="M919.93 6.58561C921.356 6.58561 922.436 7.19057 923.17 8.40049C923.916 9.59711 924.29 11.3389 924.29 13.6257C924.29 15.9126 923.916 17.661 923.17 18.8709C922.436 20.0808 921.356 20.6858 919.93 20.6858C918.517 20.6858 917.437 20.0808 916.69 18.8709C915.943 17.661 915.57 15.9126 915.57 13.6257C915.57 11.3521 915.943 9.6104 916.69 8.40049C917.437 7.19057 918.517 6.58561 919.93 6.58561ZM916.99 13.6257C916.99 15.2478 917.137 16.5176 917.43 17.435L921.87 8.59992C921.403 7.97502 920.756 7.66256 919.93 7.66256C919.01 7.66256 918.29 8.15451 917.77 9.1384C917.25 10.109 916.99 11.6048 916.99 13.6257ZM919.93 19.5889C920.863 19.5889 921.59 19.1036 922.11 18.133C922.63 17.1491 922.89 15.6467 922.89 13.6257C922.89 11.9106 922.723 10.581 922.39 9.63699L917.95 18.5518C918.43 19.2432 919.09 19.5889 919.93 19.5889Z" fill="url(#paint49_linear_175_198)"/>
<path d="M921.13 42.2221H924.07V43.2792H916.45V42.2221H919.85V31.0138L916.61 32.9483L916.05 32.0509L920.05 29.5778H921.13V42.2221Z" fill="url(#paint50_linear_175_198)"/>
<path d="M921.13 65.015H924.07V66.072H916.45V65.015H919.85V53.8066L916.61 55.7411L916.05 54.8437L920.05 52.3706H921.13V65.015Z" fill="url(#paint51_linear_175_198)"/>
<path d="M919.93 74.964C921.356 74.964 922.436 75.569 923.17 76.7789C923.916 77.9755 924.29 79.7173 924.29 82.0041C924.29 84.291 923.916 86.0394 923.17 87.2493C922.436 88.4593 921.356 89.0642 919.93 89.0642C918.517 89.0642 917.437 88.4593 916.69 87.2493C915.943 86.0394 915.57 84.291 915.57 82.0041C915.57 79.7306 915.943 77.9888 916.69 76.7789C917.437 75.569 918.517 74.964 919.93 74.964ZM916.99 82.0041C916.99 83.6262 917.137 84.896 917.43 85.8134L921.87 76.9783C921.403 76.3534 920.756 76.041 919.93 76.041C919.01 76.041 918.29 76.5329 917.77 77.5168C917.25 78.4874 916.99 79.9832 916.99 82.0041ZM919.93 87.9673C920.863 87.9673 921.59 87.482 922.11 86.5114C922.63 85.5275 922.89 84.0251 922.89 82.0041C922.89 80.289 922.723 78.9594 922.39 78.0154L917.95 86.9302C918.43 87.6216 919.09 87.9673 919.93 87.9673Z" fill="url(#paint52_linear_175_198)"/>
<path d="M921.13 110.601H924.07V111.658H916.45V110.601H919.85V99.3922L916.61 101.327L916.05 100.429L920.05 97.9563H921.13V110.601Z" fill="url(#paint53_linear_175_198)"/>
<path d="M919.93 120.55C921.356 120.55 922.436 121.155 923.17 122.365C923.916 123.561 924.29 125.303 924.29 127.59C924.29 129.877 923.916 131.625 923.17 132.835C922.436 134.045 921.356 134.65 919.93 134.65C918.517 134.65 917.437 134.045 916.69 132.835C915.943 131.625 915.57 129.877 915.57 127.59C915.57 125.316 915.943 123.574 916.69 122.365C917.437 121.155 918.517 120.55 919.93 120.55ZM916.99 127.59C916.99 129.212 917.137 130.482 917.43 131.399L921.87 122.564C921.403 121.939 920.756 121.627 919.93 121.627C919.01 121.627 918.29 122.119 917.77 123.102C917.25 124.073 916.99 125.569 916.99 127.59ZM919.93 133.553C920.863 133.553 921.59 133.068 922.11 132.097C922.63 131.113 922.89 129.611 922.89 127.59C922.89 125.875 922.723 124.545 922.39 123.601L917.95 132.516C918.43 133.207 919.09 133.553 919.93 133.553Z" fill="url(#paint54_linear_175_198)"/>
<path d="M919.93 143.342C921.356 143.342 922.436 143.947 923.17 145.157C923.916 146.354 924.29 148.096 924.29 150.383C924.29 152.669 923.916 154.418 923.17 155.628C922.436 156.838 921.356 157.443 919.93 157.443C918.517 157.443 917.437 156.838 916.69 155.628C915.943 154.418 915.57 152.669 915.57 150.383C915.57 148.109 915.943 146.367 916.69 145.157C917.437 143.947 918.517 143.342 919.93 143.342ZM916.99 150.383C916.99 152.005 917.137 153.274 917.43 154.192L921.87 145.357C921.403 144.732 920.756 144.419 919.93 144.419C919.01 144.419 918.29 144.911 917.77 145.895C917.25 146.866 916.99 148.362 916.99 150.383ZM919.93 156.346C920.863 156.346 921.59 155.86 922.11 154.89C922.63 153.906 922.89 152.404 922.89 150.383C922.89 148.667 922.723 147.338 922.39 146.394L917.95 155.309C918.43 156 919.09 156.346 919.93 156.346Z" fill="url(#paint55_linear_175_198)"/>
<path d="M921.13 178.979H924.07V180.036H916.45V178.979H919.85V167.771L916.61 169.705L916.05 168.808L920.05 166.335H921.13V178.979Z" fill="url(#paint56_linear_175_198)"/>
<path d="M919.93 188.928C921.356 188.928 922.436 189.533 923.17 190.743C923.916 191.94 924.29 193.681 924.29 195.968C924.29 198.255 923.916 200.003 923.17 201.213C922.436 202.423 921.356 203.028 919.93 203.028C918.517 203.028 917.437 202.423 916.69 201.213C915.943 200.003 915.57 198.255 915.57 195.968C915.57 193.695 915.943 191.953 916.69 190.743C917.437 189.533 918.517 188.928 919.93 188.928ZM916.99 195.968C916.99 197.59 917.137 198.86 917.43 199.777L921.87 190.942C921.403 190.317 920.756 190.005 919.93 190.005C919.01 190.005 918.29 190.497 917.77 191.481C917.25 192.451 916.99 193.947 916.99 195.968ZM919.93 201.931C920.863 201.931 921.59 201.446 922.11 200.475C922.63 199.492 922.89 197.989 922.89 195.968C922.89 194.253 922.723 192.923 922.39 191.979L917.95 200.894C918.43 201.586 919.09 201.931 919.93 201.931Z" fill="url(#paint57_linear_175_198)"/>
<path d="M921.13 224.565H924.07V225.622H916.45V224.565H919.85V213.356L916.61 215.291L916.05 214.393L920.05 211.92H921.13V224.565Z" fill="url(#paint58_linear_175_198)"/>
<path d="M921.13 247.357H924.07V248.414H916.45V247.357H919.85V236.149L916.61 238.084L916.05 237.186L920.05 234.713H921.13V247.357Z" fill="url(#paint59_linear_175_198)"/>
<path d="M957.07 6.58561C958.497 6.58561 959.577 7.19057 960.31 8.40049C961.057 9.59711 961.43 11.3389 961.43 13.6257C961.43 15.9126 961.057 17.661 960.31 18.8709C959.577 20.0808 958.497 20.6858 957.07 20.6858C955.657 20.6858 954.577 20.0808 953.83 18.8709C953.084 17.661 952.71 15.9126 952.71 13.6257C952.71 11.3521 953.084 9.6104 953.83 8.40049C954.577 7.19057 955.657 6.58561 957.07 6.58561ZM954.13 13.6257C954.13 15.2478 954.277 16.5176 954.57 17.435L959.01 8.59992C958.543 7.97502 957.897 7.66256 957.07 7.66256C956.15 7.66256 955.43 8.15451 954.91 9.1384C954.39 10.109 954.13 11.6048 954.13 13.6257ZM957.07 19.5889C958.003 19.5889 958.73 19.1036 959.25 18.133C959.77 17.1491 960.03 15.6467 960.03 13.6257C960.03 11.9106 959.863 10.581 959.53 9.63699L955.09 18.5518C955.57 19.2432 956.23 19.5889 957.07 19.5889Z" fill="url(#paint60_linear_175_198)"/>
<path d="M958.27 42.2221H961.21V43.2792H953.59V42.2221H956.99V31.0138L953.75 32.9483L953.19 32.0509L957.19 29.5778H958.27V42.2221Z" fill="url(#paint61_linear_175_198)"/>
<path d="M957.07 52.1712C958.497 52.1712 959.577 52.7762 960.31 53.9861C961.057 55.1827 961.43 56.9245 961.43 59.2113C961.43 61.4982 961.057 63.2466 960.31 64.4565C959.577 65.6665 958.497 66.2714 957.07 66.2714C955.657 66.2714 954.577 65.6665 953.83 64.4565C953.084 63.2466 952.71 61.4982 952.71 59.2113C952.71 56.9378 953.084 55.196 953.83 53.9861C954.577 52.7762 955.657 52.1712 957.07 52.1712ZM954.13 59.2113C954.13 60.8334 954.277 62.1032 954.57 63.0206L959.01 54.1855C958.543 53.5606 957.897 53.2482 957.07 53.2482C956.15 53.2482 955.43 53.7401 954.91 54.724C954.39 55.6946 954.13 57.1904 954.13 59.2113ZM957.07 65.1745C958.003 65.1745 958.73 64.6892 959.25 63.7186C959.77 62.7347 960.03 61.2323 960.03 59.2113C960.03 57.4962 959.863 56.1666 959.53 55.2226L955.09 64.1374C955.57 64.8288 956.23 65.1745 957.07 65.1745Z" fill="url(#paint62_linear_175_198)"/>
<path d="M957.07 74.964C958.497 74.964 959.577 75.569 960.31 76.7789C961.057 77.9755 961.43 79.7173 961.43 82.0041C961.43 84.291 961.057 86.0394 960.31 87.2493C959.577 88.4593 958.497 89.0642 957.07 89.0642C955.657 89.0642 954.577 88.4593 953.83 87.2493C953.084 86.0394 952.71 84.291 952.71 82.0041C952.71 79.7306 953.084 77.9888 953.83 76.7789C954.577 75.569 955.657 74.964 957.07 74.964ZM954.13 82.0041C954.13 83.6262 954.277 84.896 954.57 85.8134L959.01 76.9783C958.543 76.3534 957.897 76.041 957.07 76.041C956.15 76.041 955.43 76.5329 954.91 77.5168C954.39 78.4874 954.13 79.9832 954.13 82.0041ZM957.07 87.9673C958.003 87.9673 958.73 87.482 959.25 86.5114C959.77 85.5275 960.03 84.0251 960.03 82.0041C960.03 80.289 959.863 78.9594 959.53 78.0154L955.09 86.9302C955.57 87.6216 956.23 87.9673 957.07 87.9673Z" fill="url(#paint63_linear_175_198)"/>
<path d="M958.27 110.601H961.21V111.658H953.59V110.601H956.99V99.3922L953.75 101.327L953.19 100.429L957.19 97.9563H958.27V110.601Z" fill="url(#paint64_linear_175_198)"/>
<path d="M957.07 120.55C958.497 120.55 959.577 121.155 960.31 122.365C961.057 123.561 961.43 125.303 961.43 127.59C961.43 129.877 961.057 131.625 960.31 132.835C959.577 134.045 958.497 134.65 957.07 134.65C955.657 134.65 954.577 134.045 953.83 132.835C953.084 131.625 952.71 129.877 952.71 127.59C952.71 125.316 953.084 123.574 953.83 122.365C954.577 121.155 955.657 120.55 957.07 120.55ZM954.13 127.59C954.13 129.212 954.277 130.482 954.57 131.399L959.01 122.564C958.543 121.939 957.897 121.627 957.07 121.627C956.15 121.627 955.43 122.119 954.91 123.102C954.39 124.073 954.13 125.569 954.13 127.59ZM957.07 133.553C958.003 133.553 958.73 133.068 959.25 132.097C959.77 131.113 960.03 129.611 960.03 127.59C960.03 125.875 959.863 124.545 959.53 123.601L955.09 132.516C955.57 133.207 956.23 133.553 957.07 133.553Z" fill="url(#paint65_linear_175_198)"/>
<path d="M958.27 156.186H961.21V157.243H953.59V156.186H956.99V144.978L953.75 146.912L953.19 146.015L957.19 143.542H958.27V156.186Z" fill="url(#paint66_linear_175_198)"/>
<path d="M957.07 166.135C958.497 166.135 959.577 166.74 960.31 167.95C961.057 169.147 961.43 170.888 961.43 173.175C961.43 175.462 961.057 177.211 960.31 178.421C959.577 179.63 958.497 180.235 957.07 180.235C955.657 180.235 954.577 179.63 953.83 178.421C953.084 177.211 952.71 175.462 952.71 173.175C952.71 170.902 953.084 169.16 953.83 167.95C954.577 166.74 955.657 166.135 957.07 166.135ZM954.13 173.175C954.13 174.797 954.277 176.067 954.57 176.985L959.01 168.15C958.543 167.525 957.897 167.212 957.07 167.212C956.15 167.212 955.43 167.704 954.91 168.688C954.39 169.659 954.13 171.154 954.13 173.175ZM957.07 179.139C958.003 179.139 958.73 178.653 959.25 177.683C959.77 176.699 960.03 175.196 960.03 173.175C960.03 171.46 959.863 170.131 959.53 169.187L955.09 178.101C955.57 178.793 956.23 179.139 957.07 179.139Z" fill="url(#paint67_linear_175_198)"/>
<path d="M957.07 188.928C958.497 188.928 959.577 189.533 960.31 190.743C961.057 191.94 961.43 193.681 961.43 195.968C961.43 198.255 961.057 200.003 960.31 201.213C959.577 202.423 958.497 203.028 957.07 203.028C955.657 203.028 954.577 202.423 953.83 201.213C953.084 200.003 952.71 198.255 952.71 195.968C952.71 193.695 953.084 191.953 953.83 190.743C954.577 189.533 955.657 188.928 957.07 188.928ZM954.13 195.968C954.13 197.59 954.277 198.86 954.57 199.777L959.01 190.942C958.543 190.317 957.897 190.005 957.07 190.005C956.15 190.005 955.43 190.497 954.91 191.481C954.39 192.451 954.13 193.947 954.13 195.968ZM957.07 201.931C958.003 201.931 958.73 201.446 959.25 200.475C959.77 199.492 960.03 197.989 960.03 195.968C960.03 194.253 959.863 192.923 959.53 191.979L955.09 200.894C955.57 201.586 956.23 201.931 957.07 201.931Z" fill="url(#paint68_linear_175_198)"/>
<path d="M958.27 224.565H961.21V225.622H953.59V224.565H956.99V213.356L953.75 215.291L953.19 214.393L957.19 211.92H958.27V224.565Z" fill="url(#paint69_linear_175_198)"/>
<path d="M957.07 234.514C958.497 234.514 959.577 235.119 960.31 236.329C961.057 237.525 961.43 239.267 961.43 241.554C961.43 243.841 961.057 245.589 960.31 246.799C959.577 248.009 958.497 248.614 957.07 248.614C955.657 248.614 954.577 248.009 953.83 246.799C953.084 245.589 952.71 243.841 952.71 241.554C952.71 239.28 953.084 237.538 953.83 236.329C954.577 235.119 955.657 234.514 957.07 234.514ZM954.13 241.554C954.13 243.176 954.277 244.446 954.57 245.363L959.01 236.528C958.543 235.903 957.897 235.591 957.07 235.591C956.15 235.591 955.43 236.083 954.91 237.066C954.39 238.037 954.13 239.533 954.13 241.554ZM957.07 247.517C958.003 247.517 958.73 247.032 959.25 246.061C959.77 245.077 960.03 243.575 960.03 241.554C960.03 239.839 959.863 238.509 959.53 237.565L955.09 246.48C955.57 247.171 956.23 247.517 957.07 247.517Z" fill="url(#paint70_linear_175_198)"/>
<path d="M958.27 270.15H961.21V271.207H953.59V270.15H956.99V258.942L953.75 260.876L953.19 259.979L957.19 257.506H958.27V270.15Z" fill="url(#paint71_linear_175_198)"/>
<path d="M958.27 292.943H961.21V294H953.59V292.943H956.99V281.735L953.75 283.669L953.19 282.772L957.19 280.299H958.27V292.943Z" fill="url(#paint72_linear_175_198)"/>
<path d="M901.36 29.3784C902.786 29.3784 903.866 29.9834 904.599 31.1933C905.346 32.3899 905.719 34.1317 905.719 36.4185C905.719 38.7054 905.346 40.4538 904.599 41.6637C903.866 42.8736 902.786 43.4786 901.36 43.4786C899.946 43.4786 898.867 42.8736 898.12 41.6637C897.373 40.4538 897 38.7054 897 36.4185C897 34.145 897.373 32.4032 898.12 31.1933C898.867 29.9834 899.946 29.3784 901.36 29.3784ZM898.42 36.4185C898.42 38.0406 898.567 39.3104 898.86 40.2278L903.3 31.3927C902.833 30.7678 902.186 30.4554 901.36 30.4554C900.44 30.4554 899.72 30.9473 899.2 31.9312C898.68 32.9018 898.42 34.3976 898.42 36.4185ZM901.36 42.3817C902.293 42.3817 903.02 41.8964 903.54 40.9258C904.06 39.9419 904.319 38.4395 904.319 36.4185C904.319 34.7034 904.153 33.3738 903.82 32.4298L899.38 41.3446C899.86 42.036 900.52 42.3817 901.36 42.3817Z" fill="url(#paint73_linear_175_198)"/>
<path d="M901.36 52.1712C902.786 52.1712 903.866 52.7762 904.599 53.9861C905.346 55.1827 905.719 56.9245 905.719 59.2113C905.719 61.4982 905.346 63.2466 904.599 64.4565C903.866 65.6665 902.786 66.2714 901.36 66.2714C899.946 66.2714 898.867 65.6665 898.12 64.4565C897.373 63.2466 897 61.4982 897 59.2113C897 56.9378 897.373 55.196 898.12 53.9861C898.867 52.7762 899.946 52.1712 901.36 52.1712ZM898.42 59.2113C898.42 60.8334 898.567 62.1032 898.86 63.0206L903.3 54.1855C902.833 53.5606 902.186 53.2482 901.36 53.2482C900.44 53.2482 899.72 53.7401 899.2 54.724C898.68 55.6946 898.42 57.1904 898.42 59.2113ZM901.36 65.1745C902.293 65.1745 903.02 64.6892 903.54 63.7186C904.06 62.7347 904.319 61.2323 904.319 59.2113C904.319 57.4962 904.153 56.1666 903.82 55.2226L899.38 64.1374C899.86 64.8288 900.52 65.1745 901.36 65.1745Z" fill="url(#paint74_linear_175_198)"/>
<path d="M902.56 87.8078H905.499V88.8648H897.88V87.8078H901.28V76.5994L898.04 78.5339L897.48 77.6365L901.48 75.1635H902.56V87.8078Z" fill="url(#paint75_linear_175_198)"/>
<path d="M901.36 97.7568C902.786 97.7568 903.866 98.3618 904.599 99.5717C905.346 100.768 905.719 102.51 905.719 104.797C905.719 107.084 905.346 108.832 904.599 110.042C903.866 111.252 902.786 111.857 901.36 111.857C899.946 111.857 898.867 111.252 898.12 110.042C897.373 108.832 897 107.084 897 104.797C897 102.523 897.373 100.782 898.12 99.5717C898.867 98.3618 899.946 97.7568 901.36 97.7568ZM898.42 104.797C898.42 106.419 898.567 107.689 898.86 108.606L903.3 99.7711C902.833 99.1462 902.186 98.8338 901.36 98.8338C900.44 98.8338 899.72 99.3257 899.2 100.31C898.68 101.28 898.42 102.776 898.42 104.797ZM901.36 110.76C902.293 110.76 903.02 110.275 903.54 109.304C904.06 108.32 904.319 106.818 904.319 104.797C904.319 103.082 904.153 101.752 903.82 100.808L899.38 109.723C899.86 110.414 900.52 110.76 901.36 110.76Z" fill="url(#paint76_linear_175_198)"/>
<path d="M902.56 133.393H905.499V134.45H897.88V133.393H901.28V122.185L898.04 124.12L897.48 123.222L901.48 120.749H902.56V133.393Z" fill="url(#paint77_linear_175_198)"/>
<path d="M902.56 156.186H905.499V157.243H897.88V156.186H901.28V144.978L898.04 146.912L897.48 146.015L901.48 143.542H902.56V156.186Z" fill="url(#paint78_linear_175_198)"/>
<path d="M939.7 -3.36345H942.64V-2.30644H935.02V-3.36345H938.42V-14.5718L935.18 -12.6373L934.62 -13.5347L938.62 -16.0078H939.7V-3.36345Z" fill="url(#paint79_linear_175_198)"/>
<path d="M938.5 6.58561C939.927 6.58561 941.006 7.19057 941.74 8.40049C942.486 9.59711 942.86 11.3389 942.86 13.6257C942.86 15.9126 942.486 17.661 941.74 18.8709C941.006 20.0808 939.927 20.6858 938.5 20.6858C937.087 20.6858 936.007 20.0808 935.26 18.8709C934.514 17.661 934.14 15.9126 934.14 13.6257C934.14 11.3521 934.514 9.6104 935.26 8.40049C936.007 7.19057 937.087 6.58561 938.5 6.58561ZM935.56 13.6257C935.56 15.2478 935.707 16.5176 936 17.435L940.44 8.59992C939.973 7.97502 939.327 7.66256 938.5 7.66256C937.58 7.66256 936.86 8.15451 936.34 9.1384C935.82 10.109 935.56 11.6048 935.56 13.6257ZM938.5 19.5889C939.433 19.5889 940.16 19.1036 940.68 18.133C941.2 17.1491 941.46 15.6467 941.46 13.6257C941.46 11.9106 941.293 10.581 940.96 9.63699L936.52 18.5518C937 19.2432 937.66 19.5889 938.5 19.5889Z" fill="url(#paint80_linear_175_198)"/>
<path d="M939.7 42.2221H942.64V43.2792H935.02V42.2221H938.42V31.0138L935.18 32.9483L934.62 32.0509L938.62 29.5778H939.7V42.2221Z" fill="url(#paint81_linear_175_198)"/>
<path d="M939.7 65.015H942.64V66.072H935.02V65.015H938.42V53.8066L935.18 55.7411L934.62 54.8437L938.62 52.3706H939.7V65.015Z" fill="url(#paint82_linear_175_198)"/>
<path d="M938.5 74.964C939.927 74.964 941.006 75.569 941.74 76.7789C942.486 77.9755 942.86 79.7173 942.86 82.0041C942.86 84.291 942.486 86.0394 941.74 87.2493C941.006 88.4593 939.927 89.0642 938.5 89.0642C937.087 89.0642 936.007 88.4593 935.26 87.2493C934.514 86.0394 934.14 84.291 934.14 82.0041C934.14 79.7306 934.514 77.9888 935.26 76.7789C936.007 75.569 937.087 74.964 938.5 74.964ZM935.56 82.0041C935.56 83.6262 935.707 84.896 936 85.8134L940.44 76.9783C939.973 76.3534 939.327 76.041 938.5 76.041C937.58 76.041 936.86 76.5329 936.34 77.5168C935.82 78.4874 935.56 79.9832 935.56 82.0041ZM938.5 87.9673C939.433 87.9673 940.16 87.482 940.68 86.5114C941.2 85.5275 941.46 84.0251 941.46 82.0041C941.46 80.289 941.293 78.9594 940.96 78.0154L936.52 86.9302C937 87.6216 937.66 87.9673 938.5 87.9673Z" fill="url(#paint83_linear_175_198)"/>
<path d="M939.7 110.601H942.64V111.658H935.02V110.601H938.42V99.3922L935.18 101.327L934.62 100.429L938.62 97.9563H939.7V110.601Z" fill="url(#paint84_linear_175_198)"/>
<path d="M939.7 133.393H942.64V134.45H935.02V133.393H938.42V122.185L935.18 124.12L934.62 123.222L938.62 120.749H939.7V133.393Z" fill="url(#paint85_linear_175_198)"/>
<path d="M938.5 143.342C939.927 143.342 941.006 143.947 941.74 145.157C942.486 146.354 942.86 148.096 942.86 150.383C942.86 152.669 942.486 154.418 941.74 155.628C941.006 156.838 939.927 157.443 938.5 157.443C937.087 157.443 936.007 156.838 935.26 155.628C934.514 154.418 934.14 152.669 934.14 150.383C934.14 148.109 934.514 146.367 935.26 145.157C936.007 143.947 937.087 143.342 938.5 143.342ZM935.56 150.383C935.56 152.005 935.707 153.274 936 154.192L940.44 145.357C939.973 144.732 939.327 144.419 938.5 144.419C937.58 144.419 936.86 144.911 936.34 145.895C935.82 146.866 935.56 148.362 935.56 150.383ZM938.5 156.346C939.433 156.346 940.16 155.86 940.68 154.89C941.2 153.906 941.46 152.404 941.46 150.383C941.46 148.667 941.293 147.338 940.96 146.394L936.52 155.309C937 156 937.66 156.346 938.5 156.346Z" fill="url(#paint86_linear_175_198)"/>
<path d="M939.7 178.979H942.64V180.036H935.02V178.979H938.42V167.771L935.18 169.705L934.62 168.808L938.62 166.335H939.7V178.979Z" fill="url(#paint87_linear_175_198)"/>
<path d="M938.5 188.928C939.927 188.928 941.006 189.533 941.74 190.743C942.486 191.94 942.86 193.681 942.86 195.968C942.86 198.255 942.486 200.003 941.74 201.213C941.006 202.423 939.927 203.028 938.5 203.028C937.087 203.028 936.007 202.423 935.26 201.213C934.514 200.003 934.14 198.255 934.14 195.968C934.14 193.695 934.514 191.953 935.26 190.743C936.007 189.533 937.087 188.928 938.5 188.928ZM935.56 195.968C935.56 197.59 935.707 198.86 936 199.777L940.44 190.942C939.973 190.317 939.327 190.005 938.5 190.005C937.58 190.005 936.86 190.497 936.34 191.481C935.82 192.451 935.56 193.947 935.56 195.968ZM938.5 201.931C939.433 201.931 940.16 201.446 940.68 200.475C941.2 199.492 941.46 197.989 941.46 195.968C941.46 194.253 941.293 192.923 940.96 191.979L936.52 200.894C937 201.586 937.66 201.931 938.5 201.931Z" fill="url(#paint88_linear_175_198)"/>
<path d="M975.64 -16.2072C977.067 -16.2072 978.147 -15.6022 978.88 -14.3923C979.627 -13.1957 980 -11.454 980 -9.16707C980 -6.8802 979.627 -5.13179 978.88 -3.92188C978.147 -2.71196 977.067 -2.107 975.64 -2.107C974.227 -2.107 973.147 -2.71196 972.401 -3.92188C971.654 -5.13179 971.281 -6.8802 971.281 -9.16707C971.281 -11.4407 971.654 -13.1824 972.401 -14.3923C973.147 -15.6022 974.227 -16.2072 975.64 -16.2072ZM972.701 -9.16707C972.701 -7.54498 972.847 -6.27523 973.14 -5.35782L977.58 -14.1929C977.114 -14.8178 976.467 -15.1302 975.64 -15.1302C974.72 -15.1302 974 -14.6383 973.48 -13.6544C972.96 -12.6838 972.701 -11.188 972.701 -9.16707ZM975.64 -3.2039C976.574 -3.2039 977.3 -3.6892 977.82 -4.65979C978.34 -5.64368 978.6 -7.14611 978.6 -9.16707C978.6 -10.8822 978.433 -12.2118 978.1 -13.1558L973.66 -4.24098C974.14 -3.54959 974.8 -3.2039 975.64 -3.2039Z" fill="url(#paint89_linear_175_198)"/>
<path d="M976.84 19.4293H979.78V20.4864H972.161V19.4293H975.56V8.22099L972.321 10.1555L971.761 9.25806L975.76 6.78504H976.84V19.4293Z" fill="url(#paint90_linear_175_198)"/>
<path d="M976.84 42.2221H979.78V43.2792H972.161V42.2221H975.56V31.0138L972.321 32.9483L971.761 32.0509L975.76 29.5778H976.84V42.2221Z" fill="url(#paint91_linear_175_198)"/>
<path d="M975.64 52.1712C977.067 52.1712 978.147 52.7762 978.88 53.9861C979.627 55.1827 980 56.9245 980 59.2113C980 61.4982 979.627 63.2466 978.88 64.4565C978.147 65.6665 977.067 66.2714 975.64 66.2714C974.227 66.2714 973.147 65.6665 972.401 64.4565C971.654 63.2466 971.281 61.4982 971.281 59.2113C971.281 56.9378 971.654 55.196 972.401 53.9861C973.147 52.7762 974.227 52.1712 975.64 52.1712ZM972.701 59.2113C972.701 60.8334 972.847 62.1032 973.14 63.0206L977.58 54.1855C977.114 53.5606 976.467 53.2482 975.64 53.2482C974.72 53.2482 974 53.7401 973.48 54.724C972.96 55.6946 972.701 57.1904 972.701 59.2113ZM975.64 65.1745C976.574 65.1745 977.3 64.6892 977.82 63.7186C978.34 62.7347 978.6 61.2323 978.6 59.2113C978.6 57.4962 978.433 56.1666 978.1 55.2226L973.66 64.1374C974.14 64.8288 974.8 65.1745 975.64 65.1745Z" fill="url(#paint92_linear_175_198)"/>
<path d="M975.64 74.964C977.067 74.964 978.147 75.569 978.88 76.7789C979.627 77.9755 980 79.7173 980 82.0041C980 84.291 979.627 86.0394 978.88 87.2493C978.147 88.4593 977.067 89.0642 975.64 89.0642C974.227 89.0642 973.147 88.4593 972.401 87.2493C971.654 86.0394 971.281 84.291 971.281 82.0041C971.281 79.7306 971.654 77.9888 972.401 76.7789C973.147 75.569 974.227 74.964 975.64 74.964ZM972.701 82.0041C972.701 83.6262 972.847 84.896 973.14 85.8134L977.58 76.9783C977.114 76.3534 976.467 76.041 975.64 76.041C974.72 76.041 974 76.5329 973.48 77.5168C972.96 78.4874 972.701 79.9832 972.701 82.0041ZM975.64 87.9673C976.574 87.9673 977.3 87.482 977.82 86.5114C978.34 85.5275 978.6 84.0251 978.6 82.0041C978.6 80.289 978.433 78.9594 978.1 78.0154L973.66 86.9302C974.14 87.6216 974.8 87.9673 975.64 87.9673Z" fill="url(#paint93_linear_175_198)"/>
</g>
<defs>
<filter id="filter0_f_175_198" x="-558.19" y="-725.19" width="2141.38" height="1500.38" filterUnits="userSpaceOnUse" color-interpolation-filters="sRGB">
<feFlood flood-opacity="0" result="BackgroundImageFix"/>
<feBlend mode="normal" in="SourceGraphic" in2="BackgroundImageFix" result="shape"/>
<feGaussianBlur stdDeviation="200.095" result="effect1_foregroundBlur_175_198"/>
</filter>
<linearGradient id="paint0_linear_175_198" x1="52.5" y1="261" x2="52.5" y2="572.381" gradientUnits="userSpaceOnUse">
<stop stop-color="#F7DD43"/>
<stop offset="1" stop-color="#F7DD43" stop-opacity="0"/>
</linearGradient>
<linearGradient id="paint1_linear_175_198" x1="52.5" y1="261" x2="52.5" y2="572.381" gradientUnits="userSpaceOnUse">
<stop stop-color="#F7DD43"/>
<stop offset="1" stop-color="#F7DD43" stop-opacity="0"/>
</linearGradient>
<linearGradient id="paint2_linear_175_198" x1="52.5" y1="261" x2="52.5" y2="572.381" gradientUnits="userSpaceOnUse">
<stop stop-color="#F7DD43"/>
<stop offset="1" stop-color="#F7DD43" stop-opacity="0"/>
</linearGradient>
<linearGradient id="paint3_linear_175_198" x1="52.5" y1="261" x2="52.5" y2="572.381" gradientUnits="userSpaceOnUse">
<stop stop-color="#F7DD43"/>
<stop offset="1" stop-color="#F7DD43" stop-opacity="0"/>
</linearGradient>
<linearGradient id="paint4_linear_175_198" x1="52.5" y1="261" x2="52.5" y2="572.381" gradientUnits="userSpaceOnUse">
<stop stop-color="#F7DD43"/>
<stop offset="1" stop-color="#F7DD43" stop-opacity="0"/>
</linearGradient>
<linearGradient id="paint5_linear_175_198" x1="52.5" y1="261" x2="52.5" y2="572.381" gradientUnits="userSpaceOnUse">
<stop stop-color="#F7DD43"/>
<stop offset="1" stop-color="#F7DD43" stop-opacity="0"/>
</linearGradient>
<linearGradient id="paint6_linear_175_198" x1="52.5" y1="261" x2="52.5" y2="572.381" gradientUnits="userSpaceOnUse">
<stop stop-color="#F7DD43"/>
<stop offset="1" stop-color="#F7DD43" stop-opacity="0"/>
</linearGradient>
<linearGradient id="paint7_linear_175_198" x1="52.5" y1="261" x2="52.5" y2="572.381" gradientUnits="userSpaceOnUse">
<stop stop-color="#F7DD43"/>
<stop offset="1" stop-color="#F7DD43" stop-opacity="0"/>
</linearGradient>
<linearGradient id="paint8_linear_175_198" x1="52.5" y1="261" x2="52.5" y2="572.381" gradientUnits="userSpaceOnUse">
<stop stop-color="#F7DD43"/>
<stop offset="1" stop-color="#F7DD43" stop-opacity="0"/>
</linearGradient>
<linearGradient id="paint9_linear_175_198" x1="52.5" y1="261" x2="52.5" y2="572.381" gradientUnits="userSpaceOnUse">
<stop stop-color="#F7DD43"/>
<stop offset="1" stop-color="#F7DD43" stop-opacity="0"/>
</linearGradient>
<linearGradient id="paint10_linear_175_198" x1="52.5" y1="261" x2="52.5" y2="572.381" gradientUnits="userSpaceOnUse">
<stop stop-color="#F7DD43"/>
<stop offset="1" stop-color="#F7DD43" stop-opacity="0"/>
</linearGradient>
<linearGradient id="paint11_linear_175_198" x1="52.5" y1="261" x2="52.5" y2="572.381" gradientUnits="userSpaceOnUse">
<stop stop-color="#F7DD43"/>
<stop offset="1" stop-color="#F7DD43" stop-opacity="0"/>
</linearGradient>
<linearGradient id="paint12_linear_175_198" x1="52.5" y1="261" x2="52.5" y2="572.381" gradientUnits="userSpaceOnUse">
<stop stop-color="#F7DD43"/>
<stop offset="1" stop-color="#F7DD43" stop-opacity="0"/>
</linearGradient>
<linearGradient id="paint13_linear_175_198" x1="52.5" y1="261" x2="52.5" y2="572.381" gradientUnits="userSpaceOnUse">
<stop stop-color="#F7DD43"/>
<stop offset="1" stop-color="#F7DD43" stop-opacity="0"/>
</linearGradient>
<linearGradient id="paint14_linear_175_198" x1="52.5" y1="261" x2="52.5" y2="572.381" gradientUnits="userSpaceOnUse">
<stop stop-color="#F7DD43"/>
<stop offset="1" stop-color="#F7DD43" stop-opacity="0"/>
</linearGradient>
<linearGradient id="paint15_linear_175_198" x1="52.5" y1="261" x2="52.5" y2="572.381" gradientUnits="userSpaceOnUse">
<stop stop-color="#F7DD43"/>
<stop offset="1" stop-color="#F7DD43" stop-opacity="0"/>
</linearGradient>
<linearGradient id="paint16_linear_175_198" x1="52.5" y1="261" x2="52.5" y2="572.381" gradientUnits="userSpaceOnUse">
<stop stop-color="#F7DD43"/>
<stop offset="1" stop-color="#F7DD43" stop-opacity="0"/>
</linearGradient>
<linearGradient id="paint17_linear_175_198" x1="52.5" y1="261" x2="52.5" y2="572.381" gradientUnits="userSpaceOnUse">
<stop stop-color="#F7DD43"/>
<stop offset="1" stop-color="#F7DD43" stop-opacity="0"/>
</linearGradient>
<linearGradient id="paint18_linear_175_198" x1="52.5" y1="261" x2="52.5" y2="572.381" gradientUnits="userSpaceOnUse">
<stop stop-color="#F7DD43"/>
<stop offset="1" stop-color="#F7DD43" stop-opacity="0"/>
</linearGradient>
<linearGradient id="paint19_linear_175_198" x1="52.5" y1="261" x2="52.5" y2="572.381" gradientUnits="userSpaceOnUse">
<stop stop-color="#F7DD43"/>
<stop offset="1" stop-color="#F7DD43" stop-opacity="0"/>
</linearGradient>
<linearGradient id="paint20_linear_175_198" x1="52.5" y1="261" x2="52.5" y2="572.381" gradientUnits="userSpaceOnUse">
<stop stop-color="#F7DD43"/>
<stop offset="1" stop-color="#F7DD43" stop-opacity="0"/>
</linearGradient>
<linearGradient id="paint21_linear_175_198" x1="52.5" y1="261" x2="52.5" y2="572.381" gradientUnits="userSpaceOnUse">
<stop stop-color="#F7DD43"/>
<stop offset="1" stop-color="#F7DD43" stop-opacity="0"/>
</linearGradient>
<linearGradient id="paint22_linear_175_198" x1="52.5" y1="261" x2="52.5" y2="572.381" gradientUnits="userSpaceOnUse">
<stop stop-color="#F7DD43"/>
<stop offset="1" stop-color="#F7DD43" stop-opacity="0"/>
</linearGradient>
<linearGradient id="paint23_linear_175_198" x1="52.5" y1="261" x2="52.5" y2="572.381" gradientUnits="userSpaceOnUse">
<stop stop-color="#F7DD43"/>
<stop offset="1" stop-color="#F7DD43" stop-opacity="0"/>
</linearGradient>
<linearGradient id="paint24_linear_175_198" x1="52.5" y1="261" x2="52.5" y2="572.381" gradientUnits="userSpaceOnUse">
<stop stop-color="#F7DD43"/>
<stop offset="1" stop-color="#F7DD43" stop-opacity="0"/>
</linearGradient>
<linearGradient id="paint25_linear_175_198" x1="52.5" y1="261" x2="52.5" y2="572.381" gradientUnits="userSpaceOnUse">
<stop stop-color="#F7DD43"/>
<stop offset="1" stop-color="#F7DD43" stop-opacity="0"/>
</linearGradient>
<linearGradient id="paint26_linear_175_198" x1="52.5" y1="261" x2="52.5" y2="572.381" gradientUnits="userSpaceOnUse">
<stop stop-color="#F7DD43"/>
<stop offset="1" stop-color="#F7DD43" stop-opacity="0"/>
</linearGradient>
<linearGradient id="paint27_linear_175_198" x1="52.5" y1="261" x2="52.5" y2="572.381" gradientUnits="userSpaceOnUse">
<stop stop-color="#F7DD43"/>
<stop offset="1" stop-color="#F7DD43" stop-opacity="0"/>
</linearGradient>
<linearGradient id="paint28_linear_175_198" x1="52.5" y1="261" x2="52.5" y2="572.381" gradientUnits="userSpaceOnUse">
<stop stop-color="#F7DD43"/>
<stop offset="1" stop-color="#F7DD43" stop-opacity="0"/>
</linearGradient>
<linearGradient id="paint29_linear_175_198" x1="52.5" y1="261" x2="52.5" y2="572.381" gradientUnits="userSpaceOnUse">
<stop stop-color="#F7DD43"/>
<stop offset="1" stop-color="#F7DD43" stop-opacity="0"/>
</linearGradient>
<linearGradient id="paint30_linear_175_198" x1="52.5" y1="261" x2="52.5" y2="572.381" gradientUnits="userSpaceOnUse">
<stop stop-color="#F7DD43"/>
<stop offset="1" stop-color="#F7DD43" stop-opacity="0"/>
</linearGradient>
<linearGradient id="paint31_linear_175_198" x1="52.5" y1="261" x2="52.5" y2="572.381" gradientUnits="userSpaceOnUse">
<stop stop-color="#F7DD43"/>
<stop offset="1" stop-color="#F7DD43" stop-opacity="0"/>
</linearGradient>
<linearGradient id="paint32_linear_175_198" x1="52.5" y1="261" x2="52.5" y2="572.381" gradientUnits="userSpaceOnUse">
<stop stop-color="#F7DD43"/>
<stop offset="1" stop-color="#F7DD43" stop-opacity="0"/>
</linearGradient>
<linearGradient id="paint33_linear_175_198" x1="52.5" y1="261" x2="52.5" y2="572.381" gradientUnits="userSpaceOnUse">
<stop stop-color="#F7DD43"/>
<stop offset="1" stop-color="#F7DD43" stop-opacity="0"/>
</linearGradient>
<linearGradient id="paint34_linear_175_198" x1="52.5" y1="261" x2="52.5" y2="572.381" gradientUnits="userSpaceOnUse">
<stop stop-color="#F7DD43"/>
<stop offset="1" stop-color="#F7DD43" stop-opacity="0"/>
</linearGradient>
<linearGradient id="paint35_linear_175_198" x1="52.5" y1="261" x2="52.5" y2="572.381" gradientUnits="userSpaceOnUse">
<stop stop-color="#F7DD43"/>
<stop offset="1" stop-color="#F7DD43" stop-opacity="0"/>
</linearGradient>
<linearGradient id="paint36_linear_175_198" x1="52.5" y1="261" x2="52.5" y2="572.381" gradientUnits="userSpaceOnUse">
<stop stop-color="#F7DD43"/>
<stop offset="1" stop-color="#F7DD43" stop-opacity="0"/>
</linearGradient>
<linearGradient id="paint37_linear_175_198" x1="52.5" y1="261" x2="52.5" y2="572.381" gradientUnits="userSpaceOnUse">
<stop stop-color="#F7DD43"/>
<stop offset="1" stop-color="#F7DD43" stop-opacity="0"/>
</linearGradient>
<linearGradient id="paint38_linear_175_198" x1="52.5" y1="261" x2="52.5" y2="572.381" gradientUnits="userSpaceOnUse">
<stop stop-color="#F7DD43"/>
<stop offset="1" stop-color="#F7DD43" stop-opacity="0"/>
</linearGradient>
<linearGradient id="paint39_linear_175_198" x1="52.5" y1="261" x2="52.5" y2="572.381" gradientUnits="userSpaceOnUse">
<stop stop-color="#F7DD43"/>
<stop offset="1" stop-color="#F7DD43" stop-opacity="0"/>
</linearGradient>
<linearGradient id="paint40_linear_175_198" x1="52.5" y1="261" x2="52.5" y2="572.381" gradientUnits="userSpaceOnUse">
<stop stop-color="#F7DD43"/>
<stop offset="1" stop-color="#F7DD43" stop-opacity="0"/>
</linearGradient>
<linearGradient id="paint41_linear_175_198" x1="52.5" y1="261" x2="52.5" y2="572.381" gradientUnits="userSpaceOnUse">
<stop stop-color="#F7DD43"/>
<stop offset="1" stop-color="#F7DD43" stop-opacity="0"/>
</linearGradient>
<linearGradient id="paint42_linear_175_198" x1="52.5" y1="261" x2="52.5" y2="572.381" gradientUnits="userSpaceOnUse">
<stop stop-color="#F7DD43"/>
<stop offset="1" stop-color="#F7DD43" stop-opacity="0"/>
</linearGradient>
<linearGradient id="paint43_linear_175_198" x1="52.5" y1="261" x2="52.5" y2="572.381" gradientUnits="userSpaceOnUse">
<stop stop-color="#F7DD43"/>
<stop offset="1" stop-color="#F7DD43" stop-opacity="0"/>
</linearGradient>
<linearGradient id="paint44_linear_175_198" x1="52.5" y1="261" x2="52.5" y2="572.381" gradientUnits="userSpaceOnUse">
<stop stop-color="#F7DD43"/>
<stop offset="1" stop-color="#F7DD43" stop-opacity="0"/>
</linearGradient>
<linearGradient id="paint45_linear_175_198" x1="52.5" y1="261" x2="52.5" y2="572.381" gradientUnits="userSpaceOnUse">
<stop stop-color="#F7DD43"/>
<stop offset="1" stop-color="#F7DD43" stop-opacity="0"/>
</linearGradient>
<linearGradient id="paint46_linear_175_198" x1="52.5" y1="261" x2="52.5" y2="572.381" gradientUnits="userSpaceOnUse">
<stop stop-color="#F7DD43"/>
<stop offset="1" stop-color="#F7DD43" stop-opacity="0"/>
</linearGradient>
<linearGradient id="paint47_linear_175_198" x1="938.5" y1="-39" x2="938.5" y2="259.818" gradientUnits="userSpaceOnUse">
<stop stop-color="#F7DD43"/>
<stop offset="1" stop-color="#F7DD43" stop-opacity="0"/>
</linearGradient>
<linearGradient id="paint48_linear_175_198" x1="938.5" y1="-39" x2="938.5" y2="259.818" gradientUnits="userSpaceOnUse">
<stop stop-color="#F7DD43"/>
<stop offset="1" stop-color="#F7DD43" stop-opacity="0"/>
</linearGradient>
<linearGradient id="paint49_linear_175_198" x1="938.5" y1="-39" x2="938.5" y2="259.818" gradientUnits="userSpaceOnUse">
<stop stop-color="#F7DD43"/>
<stop offset="1" stop-color="#F7DD43" stop-opacity="0"/>
</linearGradient>
<linearGradient id="paint50_linear_175_198" x1="938.5" y1="-39" x2="938.5" y2="259.818" gradientUnits="userSpaceOnUse">
<stop stop-color="#F7DD43"/>
<stop offset="1" stop-color="#F7DD43" stop-opacity="0"/>
</linearGradient>
<linearGradient id="paint51_linear_175_198" x1="938.5" y1="-39" x2="938.5" y2="259.818" gradientUnits="userSpaceOnUse">
<stop stop-color="#F7DD43"/>
<stop offset="1" stop-color="#F7DD43" stop-opacity="0"/>
</linearGradient>
<linearGradient id="paint52_linear_175_198" x1="938.5" y1="-39" x2="938.5" y2="259.818" gradientUnits="userSpaceOnUse">
<stop stop-color="#F7DD43"/>
<stop offset="1" stop-color="#F7DD43" stop-opacity="0"/>
</linearGradient>
<linearGradient id="paint53_linear_175_198" x1="938.5" y1="-39" x2="938.5" y2="259.818" gradientUnits="userSpaceOnUse">
<stop stop-color="#F7DD43"/>
<stop offset="1" stop-color="#F7DD43" stop-opacity="0"/>
</linearGradient>
<linearGradient id="paint54_linear_175_198" x1="938.5" y1="-39" x2="938.5" y2="259.818" gradientUnits="userSpaceOnUse">
<stop stop-color="#F7DD43"/>
<stop offset="1" stop-color="#F7DD43" stop-opacity="0"/>
</linearGradient>
<linearGradient id="paint55_linear_175_198" x1="938.5" y1="-39" x2="938.5" y2="259.818" gradientUnits="userSpaceOnUse">
<stop stop-color="#F7DD43"/>
<stop offset="1" stop-color="#F7DD43" stop-opacity="0"/>
</linearGradient>
<linearGradient id="paint56_linear_175_198" x1="938.5" y1="-39" x2="938.5" y2="259.818" gradientUnits="userSpaceOnUse">
<stop stop-color="#F7DD43"/>
<stop offset="1" stop-color="#F7DD43" stop-opacity="0"/>
</linearGradient>
<linearGradient id="paint57_linear_175_198" x1="938.5" y1="-39" x2="938.5" y2="259.818" gradientUnits="userSpaceOnUse">
<stop stop-color="#F7DD43"/>
<stop offset="1" stop-color="#F7DD43" stop-opacity="0"/>
</linearGradient>
<linearGradient id="paint58_linear_175_198" x1="938.5" y1="-39" x2="938.5" y2="259.818" gradientUnits="userSpaceOnUse">
<stop stop-color="#F7DD43"/>
<stop offset="1" stop-color="#F7DD43" stop-opacity="0"/>
</linearGradient>
<linearGradient id="paint59_linear_175_198" x1="938.5" y1="-39" x2="938.5" y2="259.818" gradientUnits="userSpaceOnUse">
<stop stop-color="#F7DD43"/>
<stop offset="1" stop-color="#F7DD43" stop-opacity="0"/>
</linearGradient>
<linearGradient id="paint60_linear_175_198" x1="938.5" y1="-39" x2="938.5" y2="259.818" gradientUnits="userSpaceOnUse">
<stop stop-color="#F7DD43"/>
<stop offset="1" stop-color="#F7DD43" stop-opacity="0"/>
</linearGradient>
<linearGradient id="paint61_linear_175_198" x1="938.5" y1="-39" x2="938.5" y2="259.818" gradientUnits="userSpaceOnUse">
<stop stop-color="#F7DD43"/>
<stop offset="1" stop-color="#F7DD43" stop-opacity="0"/>
</linearGradient>
<linearGradient id="paint62_linear_175_198" x1="938.5" y1="-39" x2="938.5" y2="259.818" gradientUnits="userSpaceOnUse">
<stop stop-color="#F7DD43"/>
<stop offset="1" stop-color="#F7DD43" stop-opacity="0"/>
</linearGradient>
<linearGradient id="paint63_linear_175_198" x1="938.5" y1="-39" x2="938.5" y2="259.818" gradientUnits="userSpaceOnUse">
<stop stop-color="#F7DD43"/>
<stop offset="1" stop-color="#F7DD43" stop-opacity="0"/>
</linearGradient>
<linearGradient id="paint64_linear_175_198" x1="938.5" y1="-39" x2="938.5" y2="259.818" gradientUnits="userSpaceOnUse">
<stop stop-color="#F7DD43"/>
<stop offset="1" stop-color="#F7DD43" stop-opacity="0"/>
</linearGradient>
<linearGradient id="paint65_linear_175_198" x1="938.5" y1="-39" x2="938.5" y2="259.818" gradientUnits="userSpaceOnUse">
<stop stop-color="#F7DD43"/>
<stop offset="1" stop-color="#F7DD43" stop-opacity="0"/>
</linearGradient>
<linearGradient id="paint66_linear_175_198" x1="938.5" y1="-39" x2="938.5" y2="259.818" gradientUnits="userSpaceOnUse">
<stop stop-color="#F7DD43"/>
<stop offset="1" stop-color="#F7DD43" stop-opacity="0"/>
</linearGradient>
<linearGradient id="paint67_linear_175_198" x1="938.5" y1="-39" x2="938.5" y2="259.818" gradientUnits="userSpaceOnUse">
<stop stop-color="#F7DD43"/>
<stop offset="1" stop-color="#F7DD43" stop-opacity="0"/>
</linearGradient>
<linearGradient id="paint68_linear_175_198" x1="938.5" y1="-39" x2="938.5" y2="259.818" gradientUnits="userSpaceOnUse">
<stop stop-color="#F7DD43"/>
<stop offset="1" stop-color="#F7DD43" stop-opacity="0"/>
</linearGradient>
<linearGradient id="paint69_linear_175_198" x1="938.5" y1="-39" x2="938.5" y2="259.818" gradientUnits="userSpaceOnUse">
<stop stop-color="#F7DD43"/>
<stop offset="1" stop-color="#F7DD43" stop-opacity="0"/>
</linearGradient>
<linearGradient id="paint70_linear_175_198" x1="938.5" y1="-39" x2="938.5" y2="259.818" gradientUnits="userSpaceOnUse">
<stop stop-color="#F7DD43"/>
<stop offset="1" stop-color="#F7DD43" stop-opacity="0"/>
</linearGradient>
<linearGradient id="paint71_linear_175_198" x1="938.5" y1="-39" x2="938.5" y2="259.818" gradientUnits="userSpaceOnUse">
<stop stop-color="#F7DD43"/>
<stop offset="1" stop-color="#F7DD43" stop-opacity="0"/>
</linearGradient>
<linearGradient id="paint72_linear_175_198" x1="938.5" y1="-39" x2="938.5" y2="259.818" gradientUnits="userSpaceOnUse">
<stop stop-color="#F7DD43"/>
<stop offset="1" stop-color="#F7DD43" stop-opacity="0"/>
</linearGradient>
<linearGradient id="paint73_linear_175_198" x1="938.5" y1="-39" x2="938.5" y2="259.818" gradientUnits="userSpaceOnUse">
<stop stop-color="#F7DD43"/>
<stop offset="1" stop-color="#F7DD43" stop-opacity="0"/>
</linearGradient>
<linearGradient id="paint74_linear_175_198" x1="938.5" y1="-39" x2="938.5" y2="259.818" gradientUnits="userSpaceOnUse">
<stop stop-color="#F7DD43"/>
<stop offset="1" stop-color="#F7DD43" stop-opacity="0"/>
</linearGradient>
<linearGradient id="paint75_linear_175_198" x1="938.5" y1="-39" x2="938.5" y2="259.818" gradientUnits="userSpaceOnUse">
<stop stop-color="#F7DD43"/>
<stop offset="1" stop-color="#F7DD43" stop-opacity="0"/>
</linearGradient>
<linearGradient id="paint76_linear_175_198" x1="938.5" y1="-39" x2="938.5" y2="259.818" gradientUnits="userSpaceOnUse">
<stop stop-color="#F7DD43"/>
<stop offset="1" stop-color="#F7DD43" stop-opacity="0"/>
</linearGradient>
<linearGradient id="paint77_linear_175_198" x1="938.5" y1="-39" x2="938.5" y2="259.818" gradientUnits="userSpaceOnUse">
<stop stop-color="#F7DD43"/>
<stop offset="1" stop-color="#F7DD43" stop-opacity="0"/>
</linearGradient>
<linearGradient id="paint78_linear_175_198" x1="938.5" y1="-39" x2="938.5" y2="259.818" gradientUnits="userSpaceOnUse">
<stop stop-color="#F7DD43"/>
<stop offset="1" stop-color="#F7DD43" stop-opacity="0"/>
</linearGradient>
<linearGradient id="paint79_linear_175_198" x1="938.5" y1="-39" x2="938.5" y2="259.818" gradientUnits="userSpaceOnUse">
<stop stop-color="#F7DD43"/>
<stop offset="1" stop-color="#F7DD43" stop-opacity="0"/>
</linearGradient>
<linearGradient id="paint80_linear_175_198" x1="938.5" y1="-39" x2="938.5" y2="259.818" gradientUnits="userSpaceOnUse">
<stop stop-color="#F7DD43"/>
<stop offset="1" stop-color="#F7DD43" stop-opacity="0"/>
</linearGradient>
<linearGradient id="paint81_linear_175_198" x1="938.5" y1="-39" x2="938.5" y2="259.818" gradientUnits="userSpaceOnUse">
<stop stop-color="#F7DD43"/>
<stop offset="1" stop-color="#F7DD43" stop-opacity="0"/>
</linearGradient>
<linearGradient id="paint82_linear_175_198" x1="938.5" y1="-39" x2="938.5" y2="259.818" gradientUnits="userSpaceOnUse">
<stop stop-color="#F7DD43"/>
<stop offset="1" stop-color="#F7DD43" stop-opacity="0"/>
</linearGradient>
<linearGradient id="paint83_linear_175_198" x1="938.5" y1="-39" x2="938.5" y2="259.818" gradientUnits="userSpaceOnUse">
<stop stop-color="#F7DD43"/>
<stop offset="1" stop-color="#F7DD43" stop-opacity="0"/>
</linearGradient>
<linearGradient id="paint84_linear_175_198" x1="938.5" y1="-39" x2="938.5" y2="259.818" gradientUnits="userSpaceOnUse">
<stop stop-color="#F7DD43"/>
<stop offset="1" stop-color="#F7DD43" stop-opacity="0"/>
</linearGradient>
<linearGradient id="paint85_linear_175_198" x1="938.5" y1="-39" x2="938.5" y2="259.818" gradientUnits="userSpaceOnUse">
<stop stop-color="#F7DD43"/>
<stop offset="1" stop-color="#F7DD43" stop-opacity="0"/>
</linearGradient>
<linearGradient id="paint86_linear_175_198" x1="938.5" y1="-39" x2="938.5" y2="259.818" gradientUnits="userSpaceOnUse">
<stop stop-color="#F7DD43"/>
<stop offset="1" stop-color="#F7DD43" stop-opacity="0"/>
</linearGradient>
<linearGradient id="paint87_linear_175_198" x1="938.5" y1="-39" x2="938.5" y2="259.818" gradientUnits="userSpaceOnUse">
<stop stop-color="#F7DD43"/>
<stop offset="1" stop-color="#F7DD43" stop-opacity="0"/>
</linearGradient>
<linearGradient id="paint88_linear_175_198" x1="938.5" y1="-39" x2="938.5" y2="259.818" gradientUnits="userSpaceOnUse">
<stop stop-color="#F7DD43"/>
<stop offset="1" stop-color="#F7DD43" stop-opacity="0"/>
</linearGradient>
<linearGradient id="paint89_linear_175_198" x1="938.5" y1="-39" x2="938.5" y2="259.818" gradientUnits="userSpaceOnUse">
<stop stop-color="#F7DD43"/>
<stop offset="1" stop-color="#F7DD43" stop-opacity="0"/>
</linearGradient>
<linearGradient id="paint90_linear_175_198" x1="938.5" y1="-39" x2="938.5" y2="259.818" gradientUnits="userSpaceOnUse">
<stop stop-color="#F7DD43"/>
<stop offset="1" stop-color="#F7DD43" stop-opacity="0"/>
</linearGradient>
<linearGradient id="paint91_linear_175_198" x1="938.5" y1="-39" x2="938.5" y2="259.818" gradientUnits="userSpaceOnUse">
<stop stop-color="#F7DD43"/>
<stop offset="1" stop-color="#F7DD43" stop-opacity="0"/>
</linearGradient>
<linearGradient id="paint92_linear_175_198" x1="938.5" y1="-39" x2="938.5" y2="259.818" gradientUnits="userSpaceOnUse">
<stop stop-color="#F7DD43"/>
<stop offset="1" stop-color="#F7DD43" stop-opacity="0"/>
</linearGradient>
<linearGradient id="paint93_linear_175_198" x1="938.5" y1="-39" x2="938.5" y2="259.818" gradientUnits="userSpaceOnUse">
<stop stop-color="#F7DD43"/>
<stop offset="1" stop-color="#F7DD43" stop-opacity="0"/>
</linearGradient>
</defs>
</svg>
